%FSLAX45Y45*%
G04 Gerber Fmt 4.5, Leading zero omitted, Abs format (unit mm)*
G04 Created by KiCad (PCBNEW (6.0.5)) date 2023-04-20 10:53:27*
%MOMM*%
%LPD*%
G01*
G04 APERTURE LIST*
%TA.AperFunction,Profile*%
%ADD10C,0.100000*%
%TD*%
%ADD11C,0.200000*%
G04 APERTURE END LIST*
D10*
X15920000Y-13930000D02*
X9610000Y-13930000D01*
X9610000Y-7730000D01*
X15920000Y-7730000D01*
X15920000Y-13930000D01*
D11*
X9862619Y-14245476D02*
X9862619Y-14045476D01*
X9910238Y-14045476D01*
X9938810Y-14055000D01*
X9957857Y-14074048D01*
X9967381Y-14093095D01*
X9976905Y-14131190D01*
X9976905Y-14159762D01*
X9967381Y-14197857D01*
X9957857Y-14216905D01*
X9938810Y-14235952D01*
X9910238Y-14245476D01*
X9862619Y-14245476D01*
X10062619Y-14245476D02*
X10062619Y-14112143D01*
X10062619Y-14150238D02*
X10072143Y-14131190D01*
X10081667Y-14121667D01*
X10100714Y-14112143D01*
X10119762Y-14112143D01*
X10186429Y-14245476D02*
X10186429Y-14112143D01*
X10186429Y-14045476D02*
X10176905Y-14055000D01*
X10186429Y-14064524D01*
X10195952Y-14055000D01*
X10186429Y-14045476D01*
X10186429Y-14064524D01*
X10310238Y-14245476D02*
X10291190Y-14235952D01*
X10281667Y-14216905D01*
X10281667Y-14045476D01*
X10415000Y-14245476D02*
X10395952Y-14235952D01*
X10386429Y-14216905D01*
X10386429Y-14045476D01*
X10643571Y-14245476D02*
X10643571Y-14045476D01*
X10710238Y-14188333D01*
X10776905Y-14045476D01*
X10776905Y-14245476D01*
X10957857Y-14245476D02*
X10957857Y-14140714D01*
X10948333Y-14121667D01*
X10929286Y-14112143D01*
X10891190Y-14112143D01*
X10872143Y-14121667D01*
X10957857Y-14235952D02*
X10938810Y-14245476D01*
X10891190Y-14245476D01*
X10872143Y-14235952D01*
X10862619Y-14216905D01*
X10862619Y-14197857D01*
X10872143Y-14178809D01*
X10891190Y-14169286D01*
X10938810Y-14169286D01*
X10957857Y-14159762D01*
X11053095Y-14112143D02*
X11053095Y-14312143D01*
X11053095Y-14121667D02*
X11072143Y-14112143D01*
X11110238Y-14112143D01*
X11129286Y-14121667D01*
X11138810Y-14131190D01*
X11148333Y-14150238D01*
X11148333Y-14207381D01*
X11138810Y-14226428D01*
X11129286Y-14235952D01*
X11110238Y-14245476D01*
X11072143Y-14245476D01*
X11053095Y-14235952D01*
X11234048Y-14226428D02*
X11243571Y-14235952D01*
X11234048Y-14245476D01*
X11224524Y-14235952D01*
X11234048Y-14226428D01*
X11234048Y-14245476D01*
X11234048Y-14121667D02*
X11243571Y-14131190D01*
X11234048Y-14140714D01*
X11224524Y-14131190D01*
X11234048Y-14121667D01*
X11234048Y-14140714D01*
M02*
