%FSLAX45Y45*%
G04 Gerber Fmt 4.5, Leading zero omitted, Abs format (unit mm)*
G04 Created by KiCad (PCBNEW (6.0.5)) date 2023-04-20 10:53:27*
%MOMM*%
%LPD*%
G01*
G04 APERTURE LIST*
%TA.AperFunction,Profile*%
%ADD10C,0.100000*%
%TD*%
%ADD11C,0.200000*%
%ADD12C,0.040000*%
%ADD13C,0.100000*%
%ADD14C,0.110000*%
G04 APERTURE END LIST*
D10*
X15920000Y-13930000D02*
X9610000Y-13930000D01*
X9610000Y-7730000D01*
X15920000Y-7730000D01*
X15920000Y-13930000D01*
D11*
D12*
X9900000Y-9170000D02*
X9940000Y-9210000D01*
X9940000Y-9170000D02*
X9900000Y-9210000D01*
X10230000Y-7980000D02*
X10270000Y-8020000D01*
X10270000Y-7980000D02*
X10230000Y-8020000D01*
X10230000Y-8280000D02*
X10270000Y-8320000D01*
X10270000Y-8280000D02*
X10230000Y-8320000D01*
X10230000Y-8480000D02*
X10270000Y-8520000D01*
X10270000Y-8480000D02*
X10230000Y-8520000D01*
X10230000Y-8630000D02*
X10270000Y-8670000D01*
X10270000Y-8630000D02*
X10230000Y-8670000D01*
X10480000Y-8880000D02*
X10520000Y-8920000D01*
X10520000Y-8880000D02*
X10480000Y-8920000D01*
X10610000Y-9360000D02*
X10650000Y-9400000D01*
X10650000Y-9360000D02*
X10610000Y-9400000D01*
X10790000Y-10200000D02*
X10830000Y-10240000D01*
X10830000Y-10200000D02*
X10790000Y-10240000D01*
X10790000Y-10920000D02*
X10830000Y-10960000D01*
X10830000Y-10920000D02*
X10790000Y-10960000D01*
X10790000Y-11650000D02*
X10830000Y-11690000D01*
X10830000Y-11650000D02*
X10790000Y-11690000D01*
X10790000Y-12410000D02*
X10830000Y-12450000D01*
X10830000Y-12410000D02*
X10790000Y-12450000D01*
X10790000Y-13060000D02*
X10830000Y-13100000D01*
X10830000Y-13060000D02*
X10790000Y-13100000D01*
X10950000Y-7810000D02*
X10990000Y-7850000D01*
X10990000Y-7810000D02*
X10950000Y-7850000D01*
X10980000Y-8880000D02*
X11020000Y-8920000D01*
X11020000Y-8880000D02*
X10980000Y-8920000D01*
X11390000Y-11600000D02*
X11430000Y-11640000D01*
X11430000Y-11600000D02*
X11390000Y-11640000D01*
X11480000Y-8030000D02*
X11520000Y-8070000D01*
X11520000Y-8030000D02*
X11480000Y-8070000D01*
X11480000Y-12020000D02*
X11520000Y-12060000D01*
X11520000Y-12020000D02*
X11480000Y-12060000D01*
X11530000Y-8380000D02*
X11570000Y-8420000D01*
X11570000Y-8380000D02*
X11530000Y-8420000D01*
X11580000Y-12900000D02*
X11620000Y-12940000D01*
X11620000Y-12900000D02*
X11580000Y-12940000D01*
X11690000Y-9630000D02*
X11730000Y-9670000D01*
X11730000Y-9630000D02*
X11690000Y-9670000D01*
X12130000Y-9160000D02*
X12170000Y-9200000D01*
X12170000Y-9160000D02*
X12130000Y-9200000D01*
X13060000Y-8510000D02*
X13100000Y-8550000D01*
X13100000Y-8510000D02*
X13060000Y-8550000D01*
X13230000Y-8080000D02*
X13270000Y-8120000D01*
X13270000Y-8080000D02*
X13230000Y-8120000D01*
X13230000Y-8230000D02*
X13270000Y-8270000D01*
X13270000Y-8230000D02*
X13230000Y-8270000D01*
X13290000Y-8610000D02*
X13330000Y-8650000D01*
X13330000Y-8610000D02*
X13290000Y-8650000D01*
X13300000Y-10270000D02*
X13340000Y-10310000D01*
X13340000Y-10270000D02*
X13300000Y-10310000D01*
X13330000Y-9810000D02*
X13370000Y-9850000D01*
X13370000Y-9810000D02*
X13330000Y-9850000D01*
X13350000Y-10870000D02*
X13390000Y-10910000D01*
X13390000Y-10870000D02*
X13350000Y-10910000D01*
X13410000Y-10380000D02*
X13450000Y-10420000D01*
X13450000Y-10380000D02*
X13410000Y-10420000D01*
X13810000Y-10540000D02*
X13850000Y-10580000D01*
X13850000Y-10540000D02*
X13810000Y-10580000D01*
X13840000Y-9620000D02*
X13880000Y-9660000D01*
X13880000Y-9620000D02*
X13840000Y-9660000D01*
X13850000Y-7940000D02*
X13890000Y-7980000D01*
X13890000Y-7940000D02*
X13850000Y-7980000D01*
X14020000Y-8520000D02*
X14060000Y-8560000D01*
X14060000Y-8520000D02*
X14020000Y-8560000D01*
X14240000Y-9210000D02*
X14280000Y-9250000D01*
X14280000Y-9210000D02*
X14240000Y-9250000D01*
X14380000Y-8880000D02*
X14420000Y-8920000D01*
X14420000Y-8880000D02*
X14380000Y-8920000D01*
X14380000Y-9310000D02*
X14420000Y-9350000D01*
X14420000Y-9310000D02*
X14380000Y-9350000D01*
X14410000Y-11500000D02*
X14450000Y-11540000D01*
X14450000Y-11500000D02*
X14410000Y-11540000D01*
X14430000Y-10540000D02*
X14470000Y-10580000D01*
X14470000Y-10540000D02*
X14430000Y-10580000D01*
X14440000Y-10800000D02*
X14480000Y-10840000D01*
X14480000Y-10800000D02*
X14440000Y-10840000D01*
X14550000Y-12950000D02*
X14590000Y-12990000D01*
X14590000Y-12950000D02*
X14550000Y-12990000D01*
X14990000Y-9840000D02*
X15030000Y-9880000D01*
X15030000Y-9840000D02*
X14990000Y-9880000D01*
X15070000Y-8600000D02*
X15110000Y-8640000D01*
X15110000Y-8600000D02*
X15070000Y-8640000D01*
X15080000Y-8410000D02*
X15120000Y-8450000D01*
X15120000Y-8410000D02*
X15080000Y-8450000D01*
X15090000Y-9740000D02*
X15130000Y-9780000D01*
X15130000Y-9740000D02*
X15090000Y-9780000D01*
X15200000Y-9650000D02*
X15240000Y-9690000D01*
X15240000Y-9650000D02*
X15200000Y-9690000D01*
D13*
X9950000Y-7968000D02*
G75*
G03*
X9950000Y-7968000I-50000J0D01*
G01*
X9950000Y-8222000D02*
G75*
G03*
X9950000Y-8222000I-50000J0D01*
G01*
X9950000Y-8476000D02*
G75*
G03*
X9950000Y-8476000I-50000J0D01*
G01*
X9950000Y-8730000D02*
G75*
G03*
X9950000Y-8730000I-50000J0D01*
G01*
X9950000Y-9646000D02*
G75*
G03*
X9950000Y-9646000I-50000J0D01*
G01*
X9950000Y-9900000D02*
G75*
G03*
X9950000Y-9900000I-50000J0D01*
G01*
X9950000Y-10400000D02*
G75*
G03*
X9950000Y-10400000I-50000J0D01*
G01*
X9950000Y-10654000D02*
G75*
G03*
X9950000Y-10654000I-50000J0D01*
G01*
X9950000Y-11150000D02*
G75*
G03*
X9950000Y-11150000I-50000J0D01*
G01*
X9950000Y-11404000D02*
G75*
G03*
X9950000Y-11404000I-50000J0D01*
G01*
X9950000Y-11903500D02*
G75*
G03*
X9950000Y-11903500I-50000J0D01*
G01*
X9950000Y-12157500D02*
G75*
G03*
X9950000Y-12157500I-50000J0D01*
G01*
X9950000Y-12672500D02*
G75*
G03*
X9950000Y-12672500I-50000J0D01*
G01*
X9950000Y-12926500D02*
G75*
G03*
X9950000Y-12926500I-50000J0D01*
G01*
X9950000Y-13422500D02*
G75*
G03*
X9950000Y-13422500I-50000J0D01*
G01*
X9950000Y-13676500D02*
G75*
G03*
X9950000Y-13676500I-50000J0D01*
G01*
X12012500Y-10780000D02*
G75*
G03*
X12012500Y-10780000I-50000J0D01*
G01*
X12100000Y-11370000D02*
G75*
G03*
X12100000Y-11370000I-50000J0D01*
G01*
X12100000Y-13670000D02*
G75*
G03*
X12100000Y-13670000I-50000J0D01*
G01*
X12266500Y-10780000D02*
G75*
G03*
X12266500Y-10780000I-50000J0D01*
G01*
X12354000Y-11370000D02*
G75*
G03*
X12354000Y-11370000I-50000J0D01*
G01*
X12883500Y-10780000D02*
G75*
G03*
X12883500Y-10780000I-50000J0D01*
G01*
X13137500Y-10780000D02*
G75*
G03*
X13137500Y-10780000I-50000J0D01*
G01*
X13246000Y-11370000D02*
G75*
G03*
X13246000Y-11370000I-50000J0D01*
G01*
X13500000Y-11370000D02*
G75*
G03*
X13500000Y-11370000I-50000J0D01*
G01*
X13500000Y-13670000D02*
G75*
G03*
X13500000Y-13670000I-50000J0D01*
G01*
X14270000Y-12600000D02*
G75*
G03*
X14270000Y-12600000I-50000J0D01*
G01*
X14370000Y-8000000D02*
G75*
G03*
X14370000Y-8000000I-50000J0D01*
G01*
X14624000Y-8000000D02*
G75*
G03*
X14624000Y-8000000I-50000J0D01*
G01*
X14878000Y-8000000D02*
G75*
G03*
X14878000Y-8000000I-50000J0D01*
G01*
X15030000Y-12600000D02*
G75*
G03*
X15030000Y-12600000I-50000J0D01*
G01*
X15132000Y-8000000D02*
G75*
G03*
X15132000Y-8000000I-50000J0D01*
G01*
X15680000Y-7990000D02*
G75*
G03*
X15680000Y-7990000I-50000J0D01*
G01*
X15680000Y-8244000D02*
G75*
G03*
X15680000Y-8244000I-50000J0D01*
G01*
X15680000Y-8498000D02*
G75*
G03*
X15680000Y-8498000I-50000J0D01*
G01*
X15680000Y-8752000D02*
G75*
G03*
X15680000Y-8752000I-50000J0D01*
G01*
X15680000Y-9184500D02*
G75*
G03*
X15680000Y-9184500I-50000J0D01*
G01*
X15680000Y-9438500D02*
G75*
G03*
X15680000Y-9438500I-50000J0D01*
G01*
X15680000Y-9692500D02*
G75*
G03*
X15680000Y-9692500I-50000J0D01*
G01*
X15680000Y-10140000D02*
G75*
G03*
X15680000Y-10140000I-50000J0D01*
G01*
X15680000Y-10394000D02*
G75*
G03*
X15680000Y-10394000I-50000J0D01*
G01*
X15680000Y-10648000D02*
G75*
G03*
X15680000Y-10648000I-50000J0D01*
G01*
X15680000Y-11090000D02*
G75*
G03*
X15680000Y-11090000I-50000J0D01*
G01*
X15680000Y-11344000D02*
G75*
G03*
X15680000Y-11344000I-50000J0D01*
G01*
X15680000Y-11598000D02*
G75*
G03*
X15680000Y-11598000I-50000J0D01*
G01*
X15680000Y-12037500D02*
G75*
G03*
X15680000Y-12037500I-50000J0D01*
G01*
X15680000Y-12291500D02*
G75*
G03*
X15680000Y-12291500I-50000J0D01*
G01*
X15680000Y-12545500D02*
G75*
G03*
X15680000Y-12545500I-50000J0D01*
G01*
X15680000Y-12990000D02*
G75*
G03*
X15680000Y-12990000I-50000J0D01*
G01*
X15680000Y-13244000D02*
G75*
G03*
X15680000Y-13244000I-50000J0D01*
G01*
X15680000Y-13498000D02*
G75*
G03*
X15680000Y-13498000I-50000J0D01*
G01*
D14*
X12546000Y-10239500D02*
X12546000Y-10349500D01*
X12491000Y-10294500D02*
X12601000Y-10294500D01*
X12800000Y-10239500D02*
X12800000Y-10349500D01*
X12745000Y-10294500D02*
X12855000Y-10294500D01*
X13054000Y-10239500D02*
X13054000Y-10349500D01*
X12999000Y-10294500D02*
X13109000Y-10294500D01*
D11*
X9862619Y-14245476D02*
X9862619Y-14045476D01*
X9910238Y-14045476D01*
X9938810Y-14055000D01*
X9957857Y-14074048D01*
X9967381Y-14093095D01*
X9976905Y-14131190D01*
X9976905Y-14159762D01*
X9967381Y-14197857D01*
X9957857Y-14216905D01*
X9938810Y-14235952D01*
X9910238Y-14245476D01*
X9862619Y-14245476D01*
X10062619Y-14245476D02*
X10062619Y-14112143D01*
X10062619Y-14150238D02*
X10072143Y-14131190D01*
X10081667Y-14121667D01*
X10100714Y-14112143D01*
X10119762Y-14112143D01*
X10186429Y-14245476D02*
X10186429Y-14112143D01*
X10186429Y-14045476D02*
X10176905Y-14055000D01*
X10186429Y-14064524D01*
X10195952Y-14055000D01*
X10186429Y-14045476D01*
X10186429Y-14064524D01*
X10310238Y-14245476D02*
X10291190Y-14235952D01*
X10281667Y-14216905D01*
X10281667Y-14045476D01*
X10415000Y-14245476D02*
X10395952Y-14235952D01*
X10386429Y-14216905D01*
X10386429Y-14045476D01*
X10643571Y-14245476D02*
X10643571Y-14045476D01*
X10710238Y-14188333D01*
X10776905Y-14045476D01*
X10776905Y-14245476D01*
X10957857Y-14245476D02*
X10957857Y-14140714D01*
X10948333Y-14121667D01*
X10929286Y-14112143D01*
X10891190Y-14112143D01*
X10872143Y-14121667D01*
X10957857Y-14235952D02*
X10938810Y-14245476D01*
X10891190Y-14245476D01*
X10872143Y-14235952D01*
X10862619Y-14216905D01*
X10862619Y-14197857D01*
X10872143Y-14178809D01*
X10891190Y-14169286D01*
X10938810Y-14169286D01*
X10957857Y-14159762D01*
X11053095Y-14112143D02*
X11053095Y-14312143D01*
X11053095Y-14121667D02*
X11072143Y-14112143D01*
X11110238Y-14112143D01*
X11129286Y-14121667D01*
X11138810Y-14131190D01*
X11148333Y-14150238D01*
X11148333Y-14207381D01*
X11138810Y-14226428D01*
X11129286Y-14235952D01*
X11110238Y-14245476D01*
X11072143Y-14245476D01*
X11053095Y-14235952D01*
X11234048Y-14226428D02*
X11243571Y-14235952D01*
X11234048Y-14245476D01*
X11224524Y-14235952D01*
X11234048Y-14226428D01*
X11234048Y-14245476D01*
X11234048Y-14121667D02*
X11243571Y-14131190D01*
X11234048Y-14140714D01*
X11224524Y-14131190D01*
X11234048Y-14121667D01*
X11234048Y-14140714D01*
D12*
X9565000Y-14555000D02*
X9605000Y-14595000D01*
X9605000Y-14555000D02*
X9565000Y-14595000D01*
D11*
X9900714Y-14465476D02*
X9919762Y-14465476D01*
X9938810Y-14475000D01*
X9948333Y-14484524D01*
X9957857Y-14503571D01*
X9967381Y-14541667D01*
X9967381Y-14589286D01*
X9957857Y-14627381D01*
X9948333Y-14646428D01*
X9938810Y-14655952D01*
X9919762Y-14665476D01*
X9900714Y-14665476D01*
X9881667Y-14655952D01*
X9872143Y-14646428D01*
X9862619Y-14627381D01*
X9853095Y-14589286D01*
X9853095Y-14541667D01*
X9862619Y-14503571D01*
X9872143Y-14484524D01*
X9881667Y-14475000D01*
X9900714Y-14465476D01*
X10053095Y-14646428D02*
X10062619Y-14655952D01*
X10053095Y-14665476D01*
X10043571Y-14655952D01*
X10053095Y-14646428D01*
X10053095Y-14665476D01*
X10234048Y-14532143D02*
X10234048Y-14665476D01*
X10186429Y-14455952D02*
X10138810Y-14598809D01*
X10262619Y-14598809D01*
X10376905Y-14465476D02*
X10395952Y-14465476D01*
X10415000Y-14475000D01*
X10424524Y-14484524D01*
X10434048Y-14503571D01*
X10443571Y-14541667D01*
X10443571Y-14589286D01*
X10434048Y-14627381D01*
X10424524Y-14646428D01*
X10415000Y-14655952D01*
X10395952Y-14665476D01*
X10376905Y-14665476D01*
X10357857Y-14655952D01*
X10348333Y-14646428D01*
X10338810Y-14627381D01*
X10329286Y-14589286D01*
X10329286Y-14541667D01*
X10338810Y-14503571D01*
X10348333Y-14484524D01*
X10357857Y-14475000D01*
X10376905Y-14465476D01*
X10567381Y-14465476D02*
X10586429Y-14465476D01*
X10605476Y-14475000D01*
X10615000Y-14484524D01*
X10624524Y-14503571D01*
X10634048Y-14541667D01*
X10634048Y-14589286D01*
X10624524Y-14627381D01*
X10615000Y-14646428D01*
X10605476Y-14655952D01*
X10586429Y-14665476D01*
X10567381Y-14665476D01*
X10548333Y-14655952D01*
X10538810Y-14646428D01*
X10529286Y-14627381D01*
X10519762Y-14589286D01*
X10519762Y-14541667D01*
X10529286Y-14503571D01*
X10538810Y-14484524D01*
X10548333Y-14475000D01*
X10567381Y-14465476D01*
X10719762Y-14665476D02*
X10719762Y-14532143D01*
X10719762Y-14551190D02*
X10729286Y-14541667D01*
X10748333Y-14532143D01*
X10776905Y-14532143D01*
X10795952Y-14541667D01*
X10805476Y-14560714D01*
X10805476Y-14665476D01*
X10805476Y-14560714D02*
X10815000Y-14541667D01*
X10834048Y-14532143D01*
X10862619Y-14532143D01*
X10881667Y-14541667D01*
X10891190Y-14560714D01*
X10891190Y-14665476D01*
X10986429Y-14665476D02*
X10986429Y-14532143D01*
X10986429Y-14551190D02*
X10995952Y-14541667D01*
X11015000Y-14532143D01*
X11043571Y-14532143D01*
X11062619Y-14541667D01*
X11072143Y-14560714D01*
X11072143Y-14665476D01*
X11072143Y-14560714D02*
X11081667Y-14541667D01*
X11100714Y-14532143D01*
X11129286Y-14532143D01*
X11148333Y-14541667D01*
X11157857Y-14560714D01*
X11157857Y-14665476D01*
X11548333Y-14455952D02*
X11376905Y-14713095D01*
X11805476Y-14465476D02*
X11824524Y-14465476D01*
X11843571Y-14475000D01*
X11853095Y-14484524D01*
X11862619Y-14503571D01*
X11872143Y-14541667D01*
X11872143Y-14589286D01*
X11862619Y-14627381D01*
X11853095Y-14646428D01*
X11843571Y-14655952D01*
X11824524Y-14665476D01*
X11805476Y-14665476D01*
X11786428Y-14655952D01*
X11776905Y-14646428D01*
X11767381Y-14627381D01*
X11757857Y-14589286D01*
X11757857Y-14541667D01*
X11767381Y-14503571D01*
X11776905Y-14484524D01*
X11786428Y-14475000D01*
X11805476Y-14465476D01*
X11957857Y-14646428D02*
X11967381Y-14655952D01*
X11957857Y-14665476D01*
X11948333Y-14655952D01*
X11957857Y-14646428D01*
X11957857Y-14665476D01*
X12091190Y-14465476D02*
X12110238Y-14465476D01*
X12129286Y-14475000D01*
X12138809Y-14484524D01*
X12148333Y-14503571D01*
X12157857Y-14541667D01*
X12157857Y-14589286D01*
X12148333Y-14627381D01*
X12138809Y-14646428D01*
X12129286Y-14655952D01*
X12110238Y-14665476D01*
X12091190Y-14665476D01*
X12072143Y-14655952D01*
X12062619Y-14646428D01*
X12053095Y-14627381D01*
X12043571Y-14589286D01*
X12043571Y-14541667D01*
X12053095Y-14503571D01*
X12062619Y-14484524D01*
X12072143Y-14475000D01*
X12091190Y-14465476D01*
X12348333Y-14665476D02*
X12234048Y-14665476D01*
X12291190Y-14665476D02*
X12291190Y-14465476D01*
X12272143Y-14494048D01*
X12253095Y-14513095D01*
X12234048Y-14522619D01*
X12529286Y-14465476D02*
X12434048Y-14465476D01*
X12424524Y-14560714D01*
X12434048Y-14551190D01*
X12453095Y-14541667D01*
X12500714Y-14541667D01*
X12519762Y-14551190D01*
X12529286Y-14560714D01*
X12538809Y-14579762D01*
X12538809Y-14627381D01*
X12529286Y-14646428D01*
X12519762Y-14655952D01*
X12500714Y-14665476D01*
X12453095Y-14665476D01*
X12434048Y-14655952D01*
X12424524Y-14646428D01*
X12605476Y-14465476D02*
X12738809Y-14465476D01*
X12653095Y-14665476D01*
X12805476Y-14465476D02*
X12805476Y-14503571D01*
X12881667Y-14465476D02*
X12881667Y-14503571D01*
X13176905Y-14741667D02*
X13167381Y-14732143D01*
X13148333Y-14703571D01*
X13138809Y-14684524D01*
X13129286Y-14655952D01*
X13119762Y-14608333D01*
X13119762Y-14570238D01*
X13129286Y-14522619D01*
X13138809Y-14494048D01*
X13148333Y-14475000D01*
X13167381Y-14446428D01*
X13176905Y-14436905D01*
X13338809Y-14532143D02*
X13338809Y-14665476D01*
X13291190Y-14455952D02*
X13243571Y-14598809D01*
X13367381Y-14598809D01*
X13538809Y-14465476D02*
X13443571Y-14465476D01*
X13434048Y-14560714D01*
X13443571Y-14551190D01*
X13462619Y-14541667D01*
X13510238Y-14541667D01*
X13529286Y-14551190D01*
X13538809Y-14560714D01*
X13548333Y-14579762D01*
X13548333Y-14627381D01*
X13538809Y-14646428D01*
X13529286Y-14655952D01*
X13510238Y-14665476D01*
X13462619Y-14665476D01*
X13443571Y-14655952D01*
X13434048Y-14646428D01*
X13786428Y-14665476D02*
X13786428Y-14465476D01*
X13872143Y-14665476D02*
X13872143Y-14560714D01*
X13862619Y-14541667D01*
X13843571Y-14532143D01*
X13815000Y-14532143D01*
X13795952Y-14541667D01*
X13786428Y-14551190D01*
X13995952Y-14665476D02*
X13976905Y-14655952D01*
X13967381Y-14646428D01*
X13957857Y-14627381D01*
X13957857Y-14570238D01*
X13967381Y-14551190D01*
X13976905Y-14541667D01*
X13995952Y-14532143D01*
X14024524Y-14532143D01*
X14043571Y-14541667D01*
X14053095Y-14551190D01*
X14062619Y-14570238D01*
X14062619Y-14627381D01*
X14053095Y-14646428D01*
X14043571Y-14655952D01*
X14024524Y-14665476D01*
X13995952Y-14665476D01*
X14176905Y-14665476D02*
X14157857Y-14655952D01*
X14148333Y-14636905D01*
X14148333Y-14465476D01*
X14329286Y-14655952D02*
X14310238Y-14665476D01*
X14272143Y-14665476D01*
X14253095Y-14655952D01*
X14243571Y-14636905D01*
X14243571Y-14560714D01*
X14253095Y-14541667D01*
X14272143Y-14532143D01*
X14310238Y-14532143D01*
X14329286Y-14541667D01*
X14338809Y-14560714D01*
X14338809Y-14579762D01*
X14243571Y-14598809D01*
X14415000Y-14655952D02*
X14434048Y-14665476D01*
X14472143Y-14665476D01*
X14491190Y-14655952D01*
X14500714Y-14636905D01*
X14500714Y-14627381D01*
X14491190Y-14608333D01*
X14472143Y-14598809D01*
X14443571Y-14598809D01*
X14424524Y-14589286D01*
X14415000Y-14570238D01*
X14415000Y-14560714D01*
X14424524Y-14541667D01*
X14443571Y-14532143D01*
X14472143Y-14532143D01*
X14491190Y-14541667D01*
X14567381Y-14741667D02*
X14576905Y-14732143D01*
X14595952Y-14703571D01*
X14605476Y-14684524D01*
X14615000Y-14655952D01*
X14624524Y-14608333D01*
X14624524Y-14570238D01*
X14615000Y-14522619D01*
X14605476Y-14494048D01*
X14595952Y-14475000D01*
X14576905Y-14446428D01*
X14567381Y-14436905D01*
D13*
X9605000Y-14839000D02*
G75*
G03*
X9605000Y-14839000I-50000J0D01*
G01*
D11*
X9967381Y-14929476D02*
X9853095Y-14929476D01*
X9910238Y-14929476D02*
X9910238Y-14729476D01*
X9891190Y-14758048D01*
X9872143Y-14777095D01*
X9853095Y-14786619D01*
X10053095Y-14910428D02*
X10062619Y-14919952D01*
X10053095Y-14929476D01*
X10043571Y-14919952D01*
X10053095Y-14910428D01*
X10053095Y-14929476D01*
X10186429Y-14729476D02*
X10205476Y-14729476D01*
X10224524Y-14739000D01*
X10234048Y-14748524D01*
X10243571Y-14767571D01*
X10253095Y-14805667D01*
X10253095Y-14853286D01*
X10243571Y-14891381D01*
X10234048Y-14910428D01*
X10224524Y-14919952D01*
X10205476Y-14929476D01*
X10186429Y-14929476D01*
X10167381Y-14919952D01*
X10157857Y-14910428D01*
X10148333Y-14891381D01*
X10138810Y-14853286D01*
X10138810Y-14805667D01*
X10148333Y-14767571D01*
X10157857Y-14748524D01*
X10167381Y-14739000D01*
X10186429Y-14729476D01*
X10376905Y-14729476D02*
X10395952Y-14729476D01*
X10415000Y-14739000D01*
X10424524Y-14748524D01*
X10434048Y-14767571D01*
X10443571Y-14805667D01*
X10443571Y-14853286D01*
X10434048Y-14891381D01*
X10424524Y-14910428D01*
X10415000Y-14919952D01*
X10395952Y-14929476D01*
X10376905Y-14929476D01*
X10357857Y-14919952D01*
X10348333Y-14910428D01*
X10338810Y-14891381D01*
X10329286Y-14853286D01*
X10329286Y-14805667D01*
X10338810Y-14767571D01*
X10348333Y-14748524D01*
X10357857Y-14739000D01*
X10376905Y-14729476D01*
X10567381Y-14729476D02*
X10586429Y-14729476D01*
X10605476Y-14739000D01*
X10615000Y-14748524D01*
X10624524Y-14767571D01*
X10634048Y-14805667D01*
X10634048Y-14853286D01*
X10624524Y-14891381D01*
X10615000Y-14910428D01*
X10605476Y-14919952D01*
X10586429Y-14929476D01*
X10567381Y-14929476D01*
X10548333Y-14919952D01*
X10538810Y-14910428D01*
X10529286Y-14891381D01*
X10519762Y-14853286D01*
X10519762Y-14805667D01*
X10529286Y-14767571D01*
X10538810Y-14748524D01*
X10548333Y-14739000D01*
X10567381Y-14729476D01*
X10719762Y-14929476D02*
X10719762Y-14796143D01*
X10719762Y-14815190D02*
X10729286Y-14805667D01*
X10748333Y-14796143D01*
X10776905Y-14796143D01*
X10795952Y-14805667D01*
X10805476Y-14824714D01*
X10805476Y-14929476D01*
X10805476Y-14824714D02*
X10815000Y-14805667D01*
X10834048Y-14796143D01*
X10862619Y-14796143D01*
X10881667Y-14805667D01*
X10891190Y-14824714D01*
X10891190Y-14929476D01*
X10986429Y-14929476D02*
X10986429Y-14796143D01*
X10986429Y-14815190D02*
X10995952Y-14805667D01*
X11015000Y-14796143D01*
X11043571Y-14796143D01*
X11062619Y-14805667D01*
X11072143Y-14824714D01*
X11072143Y-14929476D01*
X11072143Y-14824714D02*
X11081667Y-14805667D01*
X11100714Y-14796143D01*
X11129286Y-14796143D01*
X11148333Y-14805667D01*
X11157857Y-14824714D01*
X11157857Y-14929476D01*
X11548333Y-14719952D02*
X11376905Y-14977095D01*
X11805476Y-14729476D02*
X11824524Y-14729476D01*
X11843571Y-14739000D01*
X11853095Y-14748524D01*
X11862619Y-14767571D01*
X11872143Y-14805667D01*
X11872143Y-14853286D01*
X11862619Y-14891381D01*
X11853095Y-14910428D01*
X11843571Y-14919952D01*
X11824524Y-14929476D01*
X11805476Y-14929476D01*
X11786428Y-14919952D01*
X11776905Y-14910428D01*
X11767381Y-14891381D01*
X11757857Y-14853286D01*
X11757857Y-14805667D01*
X11767381Y-14767571D01*
X11776905Y-14748524D01*
X11786428Y-14739000D01*
X11805476Y-14729476D01*
X11957857Y-14910428D02*
X11967381Y-14919952D01*
X11957857Y-14929476D01*
X11948333Y-14919952D01*
X11957857Y-14910428D01*
X11957857Y-14929476D01*
X12091190Y-14729476D02*
X12110238Y-14729476D01*
X12129286Y-14739000D01*
X12138809Y-14748524D01*
X12148333Y-14767571D01*
X12157857Y-14805667D01*
X12157857Y-14853286D01*
X12148333Y-14891381D01*
X12138809Y-14910428D01*
X12129286Y-14919952D01*
X12110238Y-14929476D01*
X12091190Y-14929476D01*
X12072143Y-14919952D01*
X12062619Y-14910428D01*
X12053095Y-14891381D01*
X12043571Y-14853286D01*
X12043571Y-14805667D01*
X12053095Y-14767571D01*
X12062619Y-14748524D01*
X12072143Y-14739000D01*
X12091190Y-14729476D01*
X12224524Y-14729476D02*
X12348333Y-14729476D01*
X12281667Y-14805667D01*
X12310238Y-14805667D01*
X12329286Y-14815190D01*
X12338809Y-14824714D01*
X12348333Y-14843762D01*
X12348333Y-14891381D01*
X12338809Y-14910428D01*
X12329286Y-14919952D01*
X12310238Y-14929476D01*
X12253095Y-14929476D01*
X12234048Y-14919952D01*
X12224524Y-14910428D01*
X12443571Y-14929476D02*
X12481667Y-14929476D01*
X12500714Y-14919952D01*
X12510238Y-14910428D01*
X12529286Y-14881857D01*
X12538809Y-14843762D01*
X12538809Y-14767571D01*
X12529286Y-14748524D01*
X12519762Y-14739000D01*
X12500714Y-14729476D01*
X12462619Y-14729476D01*
X12443571Y-14739000D01*
X12434048Y-14748524D01*
X12424524Y-14767571D01*
X12424524Y-14815190D01*
X12434048Y-14834238D01*
X12443571Y-14843762D01*
X12462619Y-14853286D01*
X12500714Y-14853286D01*
X12519762Y-14843762D01*
X12529286Y-14834238D01*
X12538809Y-14815190D01*
X12710238Y-14796143D02*
X12710238Y-14929476D01*
X12662619Y-14719952D02*
X12615000Y-14862809D01*
X12738809Y-14862809D01*
X12805476Y-14729476D02*
X12805476Y-14767571D01*
X12881667Y-14729476D02*
X12881667Y-14767571D01*
X13176905Y-15005667D02*
X13167381Y-14996143D01*
X13148333Y-14967571D01*
X13138809Y-14948524D01*
X13129286Y-14919952D01*
X13119762Y-14872333D01*
X13119762Y-14834238D01*
X13129286Y-14786619D01*
X13138809Y-14758048D01*
X13148333Y-14739000D01*
X13167381Y-14710428D01*
X13176905Y-14700905D01*
X13348333Y-14729476D02*
X13253095Y-14729476D01*
X13243571Y-14824714D01*
X13253095Y-14815190D01*
X13272143Y-14805667D01*
X13319762Y-14805667D01*
X13338809Y-14815190D01*
X13348333Y-14824714D01*
X13357857Y-14843762D01*
X13357857Y-14891381D01*
X13348333Y-14910428D01*
X13338809Y-14919952D01*
X13319762Y-14929476D01*
X13272143Y-14929476D01*
X13253095Y-14919952D01*
X13243571Y-14910428D01*
X13548333Y-14929476D02*
X13434048Y-14929476D01*
X13491190Y-14929476D02*
X13491190Y-14729476D01*
X13472143Y-14758048D01*
X13453095Y-14777095D01*
X13434048Y-14786619D01*
X13786428Y-14929476D02*
X13786428Y-14729476D01*
X13872143Y-14929476D02*
X13872143Y-14824714D01*
X13862619Y-14805667D01*
X13843571Y-14796143D01*
X13815000Y-14796143D01*
X13795952Y-14805667D01*
X13786428Y-14815190D01*
X13995952Y-14929476D02*
X13976905Y-14919952D01*
X13967381Y-14910428D01*
X13957857Y-14891381D01*
X13957857Y-14834238D01*
X13967381Y-14815190D01*
X13976905Y-14805667D01*
X13995952Y-14796143D01*
X14024524Y-14796143D01*
X14043571Y-14805667D01*
X14053095Y-14815190D01*
X14062619Y-14834238D01*
X14062619Y-14891381D01*
X14053095Y-14910428D01*
X14043571Y-14919952D01*
X14024524Y-14929476D01*
X13995952Y-14929476D01*
X14176905Y-14929476D02*
X14157857Y-14919952D01*
X14148333Y-14900905D01*
X14148333Y-14729476D01*
X14329286Y-14919952D02*
X14310238Y-14929476D01*
X14272143Y-14929476D01*
X14253095Y-14919952D01*
X14243571Y-14900905D01*
X14243571Y-14824714D01*
X14253095Y-14805667D01*
X14272143Y-14796143D01*
X14310238Y-14796143D01*
X14329286Y-14805667D01*
X14338809Y-14824714D01*
X14338809Y-14843762D01*
X14243571Y-14862809D01*
X14415000Y-14919952D02*
X14434048Y-14929476D01*
X14472143Y-14929476D01*
X14491190Y-14919952D01*
X14500714Y-14900905D01*
X14500714Y-14891381D01*
X14491190Y-14872333D01*
X14472143Y-14862809D01*
X14443571Y-14862809D01*
X14424524Y-14853286D01*
X14415000Y-14834238D01*
X14415000Y-14824714D01*
X14424524Y-14805667D01*
X14443571Y-14796143D01*
X14472143Y-14796143D01*
X14491190Y-14805667D01*
X14567381Y-15005667D02*
X14576905Y-14996143D01*
X14595952Y-14967571D01*
X14605476Y-14948524D01*
X14615000Y-14919952D01*
X14624524Y-14872333D01*
X14624524Y-14834238D01*
X14615000Y-14786619D01*
X14605476Y-14758048D01*
X14595952Y-14739000D01*
X14576905Y-14710428D01*
X14567381Y-14700905D01*
D14*
X9550000Y-15048000D02*
X9550000Y-15158000D01*
X9495000Y-15103000D02*
X9605000Y-15103000D01*
D11*
X9967381Y-15193476D02*
X9853095Y-15193476D01*
X9910238Y-15193476D02*
X9910238Y-14993476D01*
X9891190Y-15022048D01*
X9872143Y-15041095D01*
X9853095Y-15050619D01*
X10053095Y-15174428D02*
X10062619Y-15183952D01*
X10053095Y-15193476D01*
X10043571Y-15183952D01*
X10053095Y-15174428D01*
X10053095Y-15193476D01*
X10253095Y-15193476D02*
X10138810Y-15193476D01*
X10195952Y-15193476D02*
X10195952Y-14993476D01*
X10176905Y-15022048D01*
X10157857Y-15041095D01*
X10138810Y-15050619D01*
X10376905Y-14993476D02*
X10395952Y-14993476D01*
X10415000Y-15003000D01*
X10424524Y-15012524D01*
X10434048Y-15031571D01*
X10443571Y-15069667D01*
X10443571Y-15117286D01*
X10434048Y-15155381D01*
X10424524Y-15174428D01*
X10415000Y-15183952D01*
X10395952Y-15193476D01*
X10376905Y-15193476D01*
X10357857Y-15183952D01*
X10348333Y-15174428D01*
X10338810Y-15155381D01*
X10329286Y-15117286D01*
X10329286Y-15069667D01*
X10338810Y-15031571D01*
X10348333Y-15012524D01*
X10357857Y-15003000D01*
X10376905Y-14993476D01*
X10567381Y-14993476D02*
X10586429Y-14993476D01*
X10605476Y-15003000D01*
X10615000Y-15012524D01*
X10624524Y-15031571D01*
X10634048Y-15069667D01*
X10634048Y-15117286D01*
X10624524Y-15155381D01*
X10615000Y-15174428D01*
X10605476Y-15183952D01*
X10586429Y-15193476D01*
X10567381Y-15193476D01*
X10548333Y-15183952D01*
X10538810Y-15174428D01*
X10529286Y-15155381D01*
X10519762Y-15117286D01*
X10519762Y-15069667D01*
X10529286Y-15031571D01*
X10538810Y-15012524D01*
X10548333Y-15003000D01*
X10567381Y-14993476D01*
X10719762Y-15193476D02*
X10719762Y-15060143D01*
X10719762Y-15079190D02*
X10729286Y-15069667D01*
X10748333Y-15060143D01*
X10776905Y-15060143D01*
X10795952Y-15069667D01*
X10805476Y-15088714D01*
X10805476Y-15193476D01*
X10805476Y-15088714D02*
X10815000Y-15069667D01*
X10834048Y-15060143D01*
X10862619Y-15060143D01*
X10881667Y-15069667D01*
X10891190Y-15088714D01*
X10891190Y-15193476D01*
X10986429Y-15193476D02*
X10986429Y-15060143D01*
X10986429Y-15079190D02*
X10995952Y-15069667D01*
X11015000Y-15060143D01*
X11043571Y-15060143D01*
X11062619Y-15069667D01*
X11072143Y-15088714D01*
X11072143Y-15193476D01*
X11072143Y-15088714D02*
X11081667Y-15069667D01*
X11100714Y-15060143D01*
X11129286Y-15060143D01*
X11148333Y-15069667D01*
X11157857Y-15088714D01*
X11157857Y-15193476D01*
X11548333Y-14983952D02*
X11376905Y-15241095D01*
X11805476Y-14993476D02*
X11824524Y-14993476D01*
X11843571Y-15003000D01*
X11853095Y-15012524D01*
X11862619Y-15031571D01*
X11872143Y-15069667D01*
X11872143Y-15117286D01*
X11862619Y-15155381D01*
X11853095Y-15174428D01*
X11843571Y-15183952D01*
X11824524Y-15193476D01*
X11805476Y-15193476D01*
X11786428Y-15183952D01*
X11776905Y-15174428D01*
X11767381Y-15155381D01*
X11757857Y-15117286D01*
X11757857Y-15069667D01*
X11767381Y-15031571D01*
X11776905Y-15012524D01*
X11786428Y-15003000D01*
X11805476Y-14993476D01*
X11957857Y-15174428D02*
X11967381Y-15183952D01*
X11957857Y-15193476D01*
X11948333Y-15183952D01*
X11957857Y-15174428D01*
X11957857Y-15193476D01*
X12091190Y-14993476D02*
X12110238Y-14993476D01*
X12129286Y-15003000D01*
X12138809Y-15012524D01*
X12148333Y-15031571D01*
X12157857Y-15069667D01*
X12157857Y-15117286D01*
X12148333Y-15155381D01*
X12138809Y-15174428D01*
X12129286Y-15183952D01*
X12110238Y-15193476D01*
X12091190Y-15193476D01*
X12072143Y-15183952D01*
X12062619Y-15174428D01*
X12053095Y-15155381D01*
X12043571Y-15117286D01*
X12043571Y-15069667D01*
X12053095Y-15031571D01*
X12062619Y-15012524D01*
X12072143Y-15003000D01*
X12091190Y-14993476D01*
X12329286Y-15060143D02*
X12329286Y-15193476D01*
X12281667Y-14983952D02*
X12234048Y-15126809D01*
X12357857Y-15126809D01*
X12415000Y-14993476D02*
X12538809Y-14993476D01*
X12472143Y-15069667D01*
X12500714Y-15069667D01*
X12519762Y-15079190D01*
X12529286Y-15088714D01*
X12538809Y-15107762D01*
X12538809Y-15155381D01*
X12529286Y-15174428D01*
X12519762Y-15183952D01*
X12500714Y-15193476D01*
X12443571Y-15193476D01*
X12424524Y-15183952D01*
X12415000Y-15174428D01*
X12605476Y-14993476D02*
X12729286Y-14993476D01*
X12662619Y-15069667D01*
X12691190Y-15069667D01*
X12710238Y-15079190D01*
X12719762Y-15088714D01*
X12729286Y-15107762D01*
X12729286Y-15155381D01*
X12719762Y-15174428D01*
X12710238Y-15183952D01*
X12691190Y-15193476D01*
X12634048Y-15193476D01*
X12615000Y-15183952D01*
X12605476Y-15174428D01*
X12805476Y-14993476D02*
X12805476Y-15031571D01*
X12881667Y-14993476D02*
X12881667Y-15031571D01*
X13176905Y-15269667D02*
X13167381Y-15260143D01*
X13148333Y-15231571D01*
X13138809Y-15212524D01*
X13129286Y-15183952D01*
X13119762Y-15136333D01*
X13119762Y-15098238D01*
X13129286Y-15050619D01*
X13138809Y-15022048D01*
X13148333Y-15003000D01*
X13167381Y-14974428D01*
X13176905Y-14964905D01*
X13234048Y-14993476D02*
X13357857Y-14993476D01*
X13291190Y-15069667D01*
X13319762Y-15069667D01*
X13338809Y-15079190D01*
X13348333Y-15088714D01*
X13357857Y-15107762D01*
X13357857Y-15155381D01*
X13348333Y-15174428D01*
X13338809Y-15183952D01*
X13319762Y-15193476D01*
X13262619Y-15193476D01*
X13243571Y-15183952D01*
X13234048Y-15174428D01*
X13595952Y-15193476D02*
X13595952Y-14993476D01*
X13681667Y-15193476D02*
X13681667Y-15088714D01*
X13672143Y-15069667D01*
X13653095Y-15060143D01*
X13624524Y-15060143D01*
X13605476Y-15069667D01*
X13595952Y-15079190D01*
X13805476Y-15193476D02*
X13786428Y-15183952D01*
X13776905Y-15174428D01*
X13767381Y-15155381D01*
X13767381Y-15098238D01*
X13776905Y-15079190D01*
X13786428Y-15069667D01*
X13805476Y-15060143D01*
X13834048Y-15060143D01*
X13853095Y-15069667D01*
X13862619Y-15079190D01*
X13872143Y-15098238D01*
X13872143Y-15155381D01*
X13862619Y-15174428D01*
X13853095Y-15183952D01*
X13834048Y-15193476D01*
X13805476Y-15193476D01*
X13986428Y-15193476D02*
X13967381Y-15183952D01*
X13957857Y-15164905D01*
X13957857Y-14993476D01*
X14138809Y-15183952D02*
X14119762Y-15193476D01*
X14081667Y-15193476D01*
X14062619Y-15183952D01*
X14053095Y-15164905D01*
X14053095Y-15088714D01*
X14062619Y-15069667D01*
X14081667Y-15060143D01*
X14119762Y-15060143D01*
X14138809Y-15069667D01*
X14148333Y-15088714D01*
X14148333Y-15107762D01*
X14053095Y-15126809D01*
X14224524Y-15183952D02*
X14243571Y-15193476D01*
X14281667Y-15193476D01*
X14300714Y-15183952D01*
X14310238Y-15164905D01*
X14310238Y-15155381D01*
X14300714Y-15136333D01*
X14281667Y-15126809D01*
X14253095Y-15126809D01*
X14234048Y-15117286D01*
X14224524Y-15098238D01*
X14224524Y-15088714D01*
X14234048Y-15069667D01*
X14253095Y-15060143D01*
X14281667Y-15060143D01*
X14300714Y-15069667D01*
X14376905Y-15269667D02*
X14386428Y-15260143D01*
X14405476Y-15231571D01*
X14415000Y-15212524D01*
X14424524Y-15183952D01*
X14434048Y-15136333D01*
X14434048Y-15098238D01*
X14424524Y-15050619D01*
X14415000Y-15022048D01*
X14405476Y-15003000D01*
X14386428Y-14974428D01*
X14376905Y-14964905D01*
M02*
