M48
; DRILL file {KiCad (6.0.5)} date Thu Apr 20 10:53:19 2023
; FORMAT={-:-/ absolute / metric / decimal}
; #@! TF.CreationDate,2023-04-20T10:53:19+08:00
; #@! TF.GenerationSoftware,Kicad,Pcbnew,(6.0.5)
; #@! TF.FileFunction,Plated,1,2,PTH
FMAT,2
METRIC
; #@! TA.AperFunction,Plated,PTH,ViaDrill
T1C0.400
; #@! TA.AperFunction,Plated,PTH,ComponentDrill
T2C1.000
; #@! TA.AperFunction,Plated,PTH,ComponentDrill
T3C1.100
%
G90
G05
T1
X99.2Y-91.9
X102.5Y-80.0
X102.5Y-83.0
X102.5Y-85.0
X102.5Y-86.5
X105.0Y-89.0
X106.3Y-93.8
X108.1Y-102.2
X108.1Y-109.4
X108.1Y-116.7
X108.1Y-124.3
X108.1Y-130.8
X109.7Y-78.3
X110.0Y-89.0
X114.1Y-116.2
X115.0Y-80.5
X115.0Y-120.4
X115.5Y-84.0
X116.0Y-129.2
X117.1Y-96.5
X121.5Y-91.8
X130.8Y-85.3
X132.5Y-81.0
X132.5Y-82.5
X133.1Y-86.3
X133.2Y-102.9
X133.5Y-98.3
X133.7Y-108.9
X134.3Y-104.0
X138.3Y-105.6
X138.6Y-96.4
X138.7Y-79.6
X140.4Y-85.4
X142.6Y-92.3
X144.0Y-89.0
X144.0Y-93.3
X144.3Y-115.2
X144.5Y-105.6
X144.6Y-108.2
X145.7Y-129.7
X150.1Y-98.6
X150.9Y-86.2
X151.0Y-84.3
X151.1Y-97.6
X152.2Y-96.7
T2
X99.0Y-79.68
X99.0Y-82.22
X99.0Y-84.76
X99.0Y-87.3
X99.0Y-96.46
X99.0Y-99.0
X99.0Y-104.0
X99.0Y-106.54
X99.0Y-111.5
X99.0Y-114.04
X99.0Y-119.035
X99.0Y-121.575
X99.0Y-126.725
X99.0Y-129.265
X99.0Y-134.225
X99.0Y-136.765
X119.625Y-107.8
X120.5Y-113.7
X120.5Y-136.7
X122.165Y-107.8
X123.04Y-113.7
X128.335Y-107.8
X130.875Y-107.8
X131.96Y-113.7
X134.5Y-113.7
X134.5Y-136.7
X142.2Y-126.0
X143.2Y-80.0
X145.74Y-80.0
X148.28Y-80.0
X149.8Y-126.0
X150.82Y-80.0
X156.3Y-79.9
X156.3Y-82.44
X156.3Y-84.98
X156.3Y-87.52
X156.3Y-91.845
X156.3Y-94.385
X156.3Y-96.925
X156.3Y-101.4
X156.3Y-103.94
X156.3Y-106.48
X156.3Y-110.9
X156.3Y-113.44
X156.3Y-115.98
X156.3Y-120.375
X156.3Y-122.915
X156.3Y-125.455
X156.3Y-129.9
X156.3Y-132.44
X156.3Y-134.98
T3
X125.46Y-102.945
X128.0Y-102.945
X130.54Y-102.945
T0
M30
