G04 #@! TF.GenerationSoftware,KiCad,Pcbnew,(6.0.5)*
G04 #@! TF.CreationDate,2023-04-20T10:52:06+08:00*
G04 #@! TF.ProjectId,Pill Dispenser,50696c6c-2044-4697-9370-656e7365722e,rev?*
G04 #@! TF.SameCoordinates,Original*
G04 #@! TF.FileFunction,Soldermask,Top*
G04 #@! TF.FilePolarity,Negative*
%FSLAX46Y46*%
G04 Gerber Fmt 4.6, Leading zero omitted, Abs format (unit mm)*
G04 Created by KiCad (PCBNEW (6.0.5)) date 2023-04-20 10:52:06*
%MOMM*%
%LPD*%
G01*
G04 APERTURE LIST*
G04 Aperture macros list*
%AMRoundRect*
0 Rectangle with rounded corners*
0 $1 Rounding radius*
0 $2 $3 $4 $5 $6 $7 $8 $9 X,Y pos of 4 corners*
0 Add a 4 corners polygon primitive as box body*
4,1,4,$2,$3,$4,$5,$6,$7,$8,$9,$2,$3,0*
0 Add four circle primitives for the rounded corners*
1,1,$1+$1,$2,$3*
1,1,$1+$1,$4,$5*
1,1,$1+$1,$6,$7*
1,1,$1+$1,$8,$9*
0 Add four rect primitives between the rounded corners*
20,1,$1+$1,$2,$3,$4,$5,0*
20,1,$1+$1,$4,$5,$6,$7,0*
20,1,$1+$1,$6,$7,$8,$9,0*
20,1,$1+$1,$8,$9,$2,$3,0*%
G04 Aperture macros list end*
%ADD10RoundRect,0.250000X0.250000X0.475000X-0.250000X0.475000X-0.250000X-0.475000X0.250000X-0.475000X0*%
%ADD11RoundRect,0.250000X0.450000X-0.350000X0.450000X0.350000X-0.450000X0.350000X-0.450000X-0.350000X0*%
%ADD12R,1.700000X1.700000*%
%ADD13O,1.700000X1.700000*%
%ADD14RoundRect,0.250000X0.475000X-0.250000X0.475000X0.250000X-0.475000X0.250000X-0.475000X-0.250000X0*%
%ADD15R,2.500000X1.800000*%
%ADD16RoundRect,0.250000X-0.250000X-0.475000X0.250000X-0.475000X0.250000X0.475000X-0.250000X0.475000X0*%
%ADD17R,1.905000X2.000000*%
%ADD18O,1.905000X2.000000*%
%ADD19RoundRect,0.250000X-0.450000X0.350000X-0.450000X-0.350000X0.450000X-0.350000X0.450000X0.350000X0*%
%ADD20RoundRect,0.250000X0.350000X0.450000X-0.350000X0.450000X-0.350000X-0.450000X0.350000X-0.450000X0*%
%ADD21R,0.650000X1.560000*%
%ADD22RoundRect,0.250000X-0.475000X0.250000X-0.475000X-0.250000X0.475000X-0.250000X0.475000X0.250000X0*%
%ADD23R,1.600000X1.400000*%
%ADD24R,2.000000X0.900000*%
%ADD25R,0.900000X2.000000*%
%ADD26R,5.000000X5.000000*%
%ADD27R,1.500000X2.200000*%
%ADD28RoundRect,0.150000X0.512500X0.150000X-0.512500X0.150000X-0.512500X-0.150000X0.512500X-0.150000X0*%
%ADD29R,2.000000X2.000000*%
%ADD30C,2.000000*%
%ADD31R,1.800000X2.500000*%
%ADD32RoundRect,0.243750X-0.456250X0.243750X-0.456250X-0.243750X0.456250X-0.243750X0.456250X0.243750X0*%
G04 APERTURE END LIST*
D10*
X113500000Y-80000000D03*
X111600000Y-80000000D03*
D11*
X109600000Y-99700000D03*
X109600000Y-97700000D03*
D12*
X156300000Y-101400000D03*
D13*
X156300000Y-103940000D03*
X156300000Y-106480000D03*
D12*
X156300000Y-110900000D03*
D13*
X156300000Y-113440000D03*
X156300000Y-115980000D03*
D12*
X99000000Y-111500000D03*
D13*
X99000000Y-114040000D03*
D14*
X142900000Y-108950000D03*
X142900000Y-107050000D03*
D11*
X109600000Y-129200000D03*
X109600000Y-127200000D03*
D15*
X143100000Y-112100000D03*
X139100000Y-112100000D03*
D11*
X109600000Y-137200000D03*
X109600000Y-135200000D03*
D16*
X114050000Y-126950000D03*
X115950000Y-126950000D03*
D17*
X125460000Y-102945000D03*
D18*
X128000000Y-102945000D03*
X130540000Y-102945000D03*
D11*
X106600000Y-114200000D03*
X106600000Y-112200000D03*
D16*
X106050000Y-80000000D03*
X107950000Y-80000000D03*
D19*
X151000000Y-88500000D03*
X151000000Y-90500000D03*
D11*
X109600000Y-121700000D03*
X109600000Y-119700000D03*
D12*
X99000000Y-96460000D03*
D13*
X99000000Y-99000000D03*
D14*
X103600000Y-129150000D03*
X103600000Y-127250000D03*
D20*
X113500000Y-84000000D03*
X111500000Y-84000000D03*
D21*
X114050000Y-124300000D03*
X115000000Y-124300000D03*
X115950000Y-124300000D03*
X115950000Y-121600000D03*
X114050000Y-121600000D03*
D19*
X120000000Y-99500000D03*
X120000000Y-101500000D03*
D22*
X135700000Y-107050000D03*
X135700000Y-108950000D03*
D11*
X109600000Y-114200000D03*
X109600000Y-112200000D03*
D14*
X103600000Y-137150000D03*
X103600000Y-135250000D03*
D12*
X99000000Y-119035000D03*
D13*
X99000000Y-121575000D03*
D12*
X156300000Y-96925000D03*
D13*
X156300000Y-94385000D03*
X156300000Y-91845000D03*
D23*
X113600000Y-87500000D03*
X106400000Y-87500000D03*
X113600000Y-90500000D03*
X106400000Y-90500000D03*
D22*
X103000000Y-88050000D03*
X103000000Y-89950000D03*
D20*
X142500000Y-104000000D03*
X140500000Y-104000000D03*
D24*
X119200000Y-78345000D03*
X119200000Y-79615000D03*
X119200000Y-80885000D03*
X119200000Y-82155000D03*
X119200000Y-83425000D03*
X119200000Y-84695000D03*
X119200000Y-85965000D03*
X119200000Y-87235000D03*
X119200000Y-88505000D03*
X119200000Y-89775000D03*
X119200000Y-91045000D03*
X119200000Y-92315000D03*
X119200000Y-93585000D03*
X119200000Y-94855000D03*
D25*
X121985000Y-95855000D03*
X123255000Y-95855000D03*
X124525000Y-95855000D03*
X125795000Y-95855000D03*
X127065000Y-95855000D03*
X128335000Y-95855000D03*
X129605000Y-95855000D03*
X130875000Y-95855000D03*
X132145000Y-95855000D03*
X133415000Y-95855000D03*
D24*
X136200000Y-94855000D03*
X136200000Y-93585000D03*
X136200000Y-92315000D03*
X136200000Y-91045000D03*
X136200000Y-89775000D03*
X136200000Y-88505000D03*
X136200000Y-87235000D03*
X136200000Y-85965000D03*
X136200000Y-84695000D03*
X136200000Y-83425000D03*
X136200000Y-82155000D03*
X136200000Y-80885000D03*
X136200000Y-79615000D03*
X136200000Y-78345000D03*
D26*
X126700000Y-85845000D03*
D11*
X106600000Y-121700000D03*
X106600000Y-119700000D03*
D12*
X99000000Y-134225000D03*
D13*
X99000000Y-136765000D03*
D16*
X114050000Y-118950000D03*
X115950000Y-118950000D03*
D12*
X99000000Y-126725000D03*
D13*
X99000000Y-129265000D03*
D11*
X109600000Y-106700000D03*
X109600000Y-104700000D03*
D12*
X156300000Y-120375000D03*
D13*
X156300000Y-122915000D03*
X156300000Y-125455000D03*
D12*
X156300000Y-79900000D03*
D13*
X156300000Y-82440000D03*
X156300000Y-84980000D03*
X156300000Y-87520000D03*
D11*
X106600000Y-129200000D03*
X106600000Y-127200000D03*
D14*
X103600000Y-99700000D03*
X103600000Y-97800000D03*
D27*
X146300000Y-108000000D03*
X152700000Y-108000000D03*
D14*
X103600000Y-106650000D03*
X103600000Y-104750000D03*
D20*
X137900000Y-104000000D03*
X135900000Y-104000000D03*
D28*
X140500000Y-108950000D03*
X140500000Y-108000000D03*
X140500000Y-107050000D03*
X138225000Y-107050000D03*
X138225000Y-108000000D03*
X138225000Y-108950000D03*
D16*
X106050000Y-84000000D03*
X107950000Y-84000000D03*
D23*
X147600000Y-87500000D03*
X140400000Y-87500000D03*
X147600000Y-90500000D03*
X140400000Y-90500000D03*
D29*
X142200000Y-126000000D03*
D30*
X149800000Y-126000000D03*
D13*
X99000000Y-79680000D03*
X99000000Y-82220000D03*
X99000000Y-84760000D03*
D12*
X99000000Y-87300000D03*
D11*
X106600000Y-137200000D03*
X106600000Y-135200000D03*
D12*
X130875000Y-107800000D03*
D13*
X128335000Y-107800000D03*
D11*
X115400000Y-114000000D03*
X115400000Y-112000000D03*
D31*
X115000000Y-133200000D03*
X115000000Y-137200000D03*
D11*
X106600000Y-106700000D03*
X106600000Y-104700000D03*
D30*
X120500000Y-136700000D03*
X134500000Y-136700000D03*
X120500000Y-113700000D03*
X134500000Y-113700000D03*
X123040000Y-113700000D03*
X131960000Y-113700000D03*
D12*
X156300000Y-129900000D03*
D13*
X156300000Y-132440000D03*
X156300000Y-134980000D03*
D14*
X103600000Y-114150000D03*
X103600000Y-112250000D03*
D12*
X99000000Y-104000000D03*
D13*
X99000000Y-106540000D03*
D12*
X119625000Y-107800000D03*
D13*
X122165000Y-107800000D03*
D11*
X106600000Y-99700000D03*
X106600000Y-97700000D03*
D14*
X103600000Y-121650000D03*
X103600000Y-119750000D03*
D13*
X150820000Y-80000000D03*
X148280000Y-80000000D03*
X145740000Y-80000000D03*
D12*
X143200000Y-80000000D03*
D16*
X145550000Y-93500000D03*
X147450000Y-93500000D03*
D32*
X116500000Y-99624999D03*
X116500000Y-101499999D03*
M02*
